<?xml version="1.0" encoding="utf-8"?>
<?xml-stylesheet type="text/xsl" href="rss1.xsl"?>
<rss version="2.0" xmlns:atom="http://www.w3.org/2005/Atom" xmlns:content="http://purl.org/rss/1.0/modules/content/" xmlns:dc="http://purl.org/dc/elements/1.1/" xmlns:media="http://search.yahoo.com/mrss/">
<channel>
 <title>Getty</title>
 <link>http://www.gettyimg.com/</link>
 <atom:link href="http://www.gettyimg.com/" rel="self" type="application/rss+xml" />

 
                <item>
                <title><![CDATA[【HD Live Performances】WEB-RiP - Dua Lipa - Osheaga Festival, Canada (31.07.2022) 1080p]]></title>
                <link><![CDATA[https://sharemania.us/threads/dua-lipa-osheaga-festival-canada-31-07-2022-1080p.232963/]]></link>
                <description><![CDATA[<article>
<blockquote class="messageText SelectQuoteContainer ugc baseHtml">
<img src="https://images2.imgbox.com/c5/36/fqw3kpAn_o.jpg" class="bbCodeImage LbImage" alt="[​IMG]" data-url="https://images2.imgbox.com/c5/36/fqw3kpAn_o.jpg" style=""> <br>
<br>
<img src="https://images2.imgbox.com/96/f4/jbU1zR15_o.jpg" class="bbCodeImage LbImage" alt="[​IMG]" data-url="https://images2.imgbox.com/96/f4/jbU1zR15_o.jpg" style=""><br>
<br>
<b>Setlist</b>:<br>
1. Physical<br>
2. New Rules<br>
3. Love Again<br>
4. Cool<br>
5. Pretty Please<br>
6. Break My Heart<br>
7. Be the One<br>
8. We're Good<br>
9. Good in Bed<br>
10. Fever<br>
11. Boys Will Be Boys<br>
12. One Kiss<br>
13. Electricity<br>
14. Hallucinate<br>
15. Cold Heart<br>
16. Future Nostalgia<br>
17. Levitating<br>
18. Don't Start Now<br>
<br>
<div class="ToggleTriggerAnchor bbCodeSpoilerContainer">
<button type="button" class="button bbCodeSpoilerButton ToggleTrigger Tooltip JsOnly" data-target="> .SpoilerTarget"><span>Spoiler: <span class="SpoilerTitle">MediaInfo</span></span></button>
<div class="SpoilerTarget bbCodeSpoilerText">
<div class="bbCodeBlock bbCodeCode">
<div class="type">Code:</div>
<pre>General
Complete name                            : N:\Dua Lipa - Osheaga Festival, Canada (31.07.2022) 1080p.mp4
Format                                   : MPEG-4
Format profile                           : Base Media
Codec ID                                 : isom (isom/iso2/avc1/mp41)
File size                                : 2.35 GiB
Duration                                 : 1 h 22 min
Overall bit rate                         : 4 072 kb/s
Frame rate                               : 30.000 FPS
major_brand                              : isom
minor_version                            : 512
compatible_brands                        : isomiso2mp41
comment                                  : mid:NDkwMDg5NzkyNzY1OTUyNw==
moov_ahead                               : 1
is_open_gop                              : 0
encoder                                  : Lavf58.20.100

Video
ID                                       : 1
Format                                   : AVC
Format/Info                              : Advanced Video Codec
Format profile                           : High@L5
Format settings                          : CABAC / 5 Ref Frames
Format settings, CABAC                   : Yes
Format settings, Reference frames        : 5 frames
Codec ID                                 : avc1
Codec ID/Info                            : Advanced Video Coding
Duration                                 : 1 h 22 min
Bit rate                                 : 3 938 kb/s
Width                                    : 1 920 pixels
Height                                   : 1 080 pixels
Display aspect ratio                     : 16:9
Frame rate mode                          : Constant
Frame rate                               : 30.000 FPS
Color space                              : YUV
Chroma subsampling                       : 4:2:0
Bit depth                                : 8 bits
Scan type                                : Progressive
Bits/(Pixel*Frame)                       : 0.063
Stream size                              : 2.27 GiB (97%)
Color range                              : Limited
Color primaries                          : BT.709
Transfer characteristics                 : BT.709
Matrix coefficients                      : BT.709
Codec configuration box                  : avcC

Audio
ID                                       : 2
Format                                   : AAC LC SBR
Format/Info                              : Advanced Audio Codec Low Complexity with Spectral Band Replication
Commercial name                          : HE-AAC
Format settings                          : NBC
Codec ID                                 : mp4a-40-5
Duration                                 : 1 h 22 min
Duration_LastFrame                       : -25 ms
Bit rate mode                            : Constant
Bit rate                                 : 128 kb/s
Channel(s)                               : 2 channels
Channel layout                           : L R
Sampling rate                            : 44.1 kHz
Frame rate                               : 21.533 FPS (2048 SPF)
Compression mode                         : Lossy
Stream size                              : 75.5 MiB (3%)
Default                                  : Yes
Alternate group                          : 1

</pre>
</div></div>
</div><br>
<div class="bbCodeBlock bbCodeVfcHH HiddenContent">
<div class="attribution type">Hidden Content:</div>
<blockquote>You must reply before you can see the hidden data contained here.</blockquote>
</div><iframe data-s9e-mediaembed="reddit" allowfullscreen="" loading="lazy" onload="var c=new MessageChannel;c.port1.onmessage=function(e){style.height=e.data+'px'};contentWindow.postMessage('s9e:init','https://s9e.github.io',[c.port2])" scrolling="no" src="https://s9e.github.io/iframe/2/reddit.min.html#dualipa/comments/we7qlu" style="border: 0px; height: 210px; max-width: 800px; width: 100%;"></iframe>
<div class="messageTextEndMarker">&nbsp;</div>
</blockquote>
</article>]]></description>
                <author><![CDATA[Gizmo234]]></author>
                </item>

                </channel></rss>